<svg height="983.03998" viewBox="0 0 983.03998 983.03998" width="983.03998" xmlns="http://www.w3.org/2000/svg" xmlns:xlink="http://www.w3.org/1999/xlink"><clipPath id="a"><path d="m0 737.28h737.28v-737.28h-737.28z"/></clipPath><g transform="matrix(1.3333333 0 0 -1.3333333 0 983.04)"><path d="m0 0h737.28v737.28h-737.28z" fill="#8f1738"/><path d="m729.884 7.385h-722.488v722.509h722.488z" fill="#8f1738"/><g clip-path="url(#a)" fill="#fff"><path d="m0 0-66.667-63.419c-2.516-2.504-3.806-4.347-3.806-9.526v-177.744c0-2.086 1.704-3.793 3.806-3.793h68.864c2.098 0 3.794 1.707 3.794 3.793v249.089c0 2.098-1.64 5.927-5.991 1.6" transform="translate(492.2756 348.6028)"/><path d="m0 0-66.675-63.411c-2.508-2.508-3.802-4.347-3.802-9.517v-95.136c0-2.077 1.708-3.785 3.802-3.785h68.868c2.102 0 3.798 1.708 3.798 3.785v166.472c0 2.101-1.656 5.939-5.991 1.592" transform="translate(300.2142 265.9775)"/><path d="m0 0c.024.505-.155 1.046-.566 1.445-.35.342-.799.501-1.233.541l-.366-.024-.546-.032-51.048-11.515-.928-.096c-.366-.071-.712-.254-.994-.521-.753-.76-.753-1.986 0-2.746l.576-.578 11.659-11.654-115.673-115.674-53.426 53.429c-.604.609-1.564.609-2.173 0l-14.496-14.501c-.012 0-.012-.016-.012-.016l-85.643-85.626c-.592-.605-.592-1.584 0-2.177l14.517-14.509c.593-.601 1.56-.601 2.158 0l84.575 84.556 38.769-38.773c.039-.06.059-.124.123-.183l14.501-14.485c.601-.61 1.568-.61 2.173 0l131.281 131.281 12.244-12.236c.751-.76 1.978-.76 2.722 0 .358.358.533.796.557 1.258l.008.163 11.213 52.111z" transform="translate(522.5787 425.512)"/><path d="m0 0-32.257-32.523c-.613-.506-1.508-.49-2.078.079l-29.224 29.789c-5.349 5.33-6.504 1.008-6.504-1.086v-153.185c0-2.086 1.68-3.794 3.774-3.794h68.885c2.085 0 3.789 1.708 3.789 3.794v155.724c0 2.093-1.652 5.939-6.385 1.202" transform="translate(396.6232 254.8485)"/><path d="m0 0c0-8.812-3.222-15.043-12.026-15.043-8.603 0-11.821 6.231-11.821 15.043v23.637c0 8.804 3.218 15.039 11.821 15.039 8.804 0 12.026-6.235 12.026-15.039zm-22.992 80.565c0 8.821 3.017 13.977 10.966 13.977 8.154 0 11.171-5.156 11.171-13.977v-9.874c0-8.809-3.017-13.977-11.171-13.977-7.949 0-10.966 5.168-10.966 13.977zm47.488-77.987v15.903c0 13.96-4.937 24.062-16.328 29.222 9.66 4.718 14.18 13.311 14.18 25.347v6.024c0 22.773-11.816 35.018-34.374 35.018-22.344 0-33.954-12.245-33.954-35.018v-6.024c0-11.821 4.306-20.629 13.75-25.347-11.386-5.16-16.117-15.262-16.117-29.222v-15.903c0-22.128 10.536-37.601 36.321-37.601 25.991 0 36.522 15.473 36.522 37.601" transform="translate(122.7569 556.737)"/><path d="m0 0h27.365v-8.397h-8.489v-52.834h-10.387v52.834h-8.489z" transform="translate(186.7999 669.5321)"/><path d="m0 0v-19.057h3.434c3.523 0 5.058 1.806 5.058 5.059v9.029c0 3.341-1.535 4.969-5.058 4.969zm0-24.747v-28.087h-10.294v61.231h14.993c10.384 0 14.177-5.147 14.177-13.725v-7.86c0-6.591-2.347-10.475-8.218-11.83l9.846-27.816h-10.839z" transform="translate(229.2278 661.1352)"/><path d="m0 0h8.219l-4.063 24.567h-.093zm-12.914-19.416 11.56 61.231h11.741l11.649-61.231h-10.565l-1.898 11.197h-10.927l-1.807-11.197z" transform="translate(264.9733 627.7175)"/><path d="m0 0v-19.146h4.517c3.431 0 5.059 1.714 5.059 4.966v9.214c0 3.25-1.536 4.966-5.15 4.966zm0 7.857h3.614c3.342 0 4.878 1.716 4.878 4.969v7.493c0 3.342-1.536 4.969-4.969 4.969h-3.523zm-10.295 25.828h14.902c10.297 0 13.728-4.785 13.728-13.455v-6.232c0-5.147-1.898-8.399-6.143-9.753 5.147-1.174 7.678-4.607 7.678-10.206v-8.126c0-8.671-3.885-13.458-14.179-13.458h-15.986z" transform="translate(301.5262 635.8468)"/><path d="m0 0h8.219l-4.064 24.567h-.092zm-12.914-19.416 11.56 61.231h11.741l11.649-61.231h-10.565l-1.898 11.197h-10.927l-1.807-11.197z" transform="translate(337.3602 627.7175)"/><path d="m0 0v-47.321c0-8.852-3.881-14.632-14.18-14.632-10.653 0-13.544 5.87-13.544 13.637v12.192h9.752v-12.374c0-3.07 1.084-4.877 3.792-4.877 2.802 0 3.886 1.807 3.886 4.97v48.405z" transform="translate(390.0824 669.5321)"/><path d="m0 0v32.874c0 3.701-1.625 6.321-5.328 6.321-3.612 0-5.24-2.62-5.24-6.321v-32.874c0-3.704 1.628-6.324 5.24-6.324 3.703 0 5.328 2.62 5.328 6.324m-20.863 1.625v29.621c0 9.574 4.696 16.53 15.535 16.53 10.927 0 15.623-6.956 15.623-16.53v-29.621c0-9.484-4.696-16.527-15.623-16.527-10.839 0-15.535 7.043-15.535 16.527" transform="translate(416.7063 622.4811)"/><path d="m0 0c4.245 0 5.869 2.528 5.869 6.231v32.061c0 3.612-1.624 6.142-5.869 6.142h-4.337v-44.434zm16.168 36.394v-28.357c0-9.391-3.886-16.437-14.902-16.437h-15.897v61.231h15.897c11.016 0 14.902-6.953 14.902-16.437" transform="translate(462.9595 616.7011)"/><path d="m0 0h24.567v-8.397h-14.272v-17.521h10.205v-8.311h-10.205v-18.602h14.272v-8.4h-24.567z" transform="translate(484.9734 669.5321)"/><path d="m0 0v29.622c0 9.573 4.515 16.529 15.354 16.529 11.378 0 14.542-6.324 14.542-15.353v-7.227h-9.395v8.038c0 3.793-1.263 5.961-4.966 5.961-3.705 0-5.24-2.62-5.24-6.32v-32.875c0-3.703 1.535-6.323 5.24-6.323 3.703 0 4.966 2.35 4.966 5.961v11.29h9.395v-10.568c0-8.759-3.615-15.261-14.542-15.261-10.839 0-15.354 7.042-15.354 16.526" transform="translate(514.1275 624.1057)"/><path d="m0 0h24.567v-8.397h-14.272v-17.521h10.205v-8.311h-10.205v-18.602h14.272v-8.4h-24.567z" transform="translate(549.5963 669.5321)"/><path d="m0 0v-38.473h-8.67v61.231h10.116l11.109-35.132v35.132h8.578v-61.231h-9.03z" transform="translate(588.3239 646.7746)"/><path d="m0 0h27.365v-8.397h-8.489v-52.834h-10.387v52.834h-8.489z" transform="translate(614.1332 669.5321)"/><path d="m0 0h24.566v-8.397h-14.272v-17.521h10.206v-8.311h-10.206v-18.602h14.272v-8.4h-24.566z" transform="translate(646.2669 669.5321)"/><path d="m0 0v-23.298h-10.294v23.298l-11.472 37.929h10.75l6.231-23.208h.089l6.232 23.208h9.846z" transform="translate(208.022 550.3677)"/><path d="m0 0v29.625c0 9.57 4.514 16.526 15.353 16.526 11.379 0 14.542-6.32 14.542-15.35v-7.229h-9.395v8.037c0 3.796-1.262 5.965-4.966 5.965s-5.24-2.62-5.24-6.321v-32.874c0-3.707 1.536-6.327 5.24-6.327s4.966 2.353 4.966 5.965v11.286h9.395v-10.568c0-8.756-3.615-15.261-14.542-15.261-10.839 0-15.353 7.046-15.353 16.526" transform="translate(239.0148 542.8707)"/><path d="m0 0v-19.056h3.433c3.524 0 5.059 1.805 5.059 5.055v9.029c0 3.344-1.535 4.972-5.059 4.972zm0-24.747v-28.087h-10.295v61.228h14.994c10.384 0 14.176-5.144 14.176-13.722v-7.859c0-6.594-2.346-10.479-8.218-11.834l9.846-27.813h-10.838z" transform="translate(284.7811 579.9034)"/><path d="m0 0h24.566v-8.394h-14.272v-17.524h10.206v-8.31h-10.206v-18.6h14.272v-8.399h-24.566z" transform="translate(309.2334 588.2971)"/><path d="m0 0v29.625c0 9.57 4.515 16.526 15.353 16.526 11.379 0 14.542-6.32 14.542-15.35v-7.229h-9.395v8.037c0 3.796-1.262 5.965-4.965 5.965-3.705 0-5.24-2.62-5.24-6.321v-32.874c0-3.707 1.535-6.327 5.24-6.327 3.703 0 4.965 2.353 4.965 5.965v11.286h9.395v-10.568c0-8.756-3.615-15.261-14.542-15.261-10.838 0-15.353 7.046-15.353 16.526" transform="translate(338.3875 542.8707)"/><path d="m373.859 588.297h10.294v-61.227h-10.294z"/><path d="m0 0h-.273l-6.953-39.735h-4.785l-7.678 39.735h-.181v-39.735h-8.489v61.227h12.011l6.683-34.495h.092l5.959 34.495h13.006v-61.227h-9.392z" transform="translate(418.4649 566.8047)"/><path d="m433.701 588.297h10.294v-61.227h-10.294z"/><path d="m0 0h24.567v-8.394h-14.272v-17.524h10.205v-8.31h-10.205v-18.6h14.272v-8.399h-24.567z" transform="translate(449.9468 588.2971)"/><path d="m0 0v-38.47h-8.67v61.228h10.116l11.109-35.132v35.132h8.578v-61.228h-9.029z" transform="translate(488.6744 565.5396)"/><path d="m0 0h27.365v-8.394h-8.489v-52.833h-10.387v52.833h-8.489z" transform="translate(514.4804 588.2971)"/><path d="m0 0v32.875c0 3.7-1.625 6.32-5.329 6.32-3.612 0-5.239-2.62-5.239-6.32v-32.875c0-3.707 1.627-6.327 5.239-6.327 3.704 0 5.329 2.62 5.329 6.327m-20.863 1.621v29.626c0 9.569 4.696 16.525 15.534 16.525 10.928 0 15.623-6.956 15.623-16.525v-29.626c0-9.48-4.695-16.525-15.623-16.525-10.838 0-15.534 7.045-15.534 16.525" transform="translate(566.1225 541.2494)"/><path d="m0 0h24.567v-8.393h-14.272v-17.524h10.205v-8.311h-10.205v-18.599h14.272v-8.4h-24.567z" transform="translate(187.9732 507.0588)"/><path d="m0 0v29.625c0 9.57 4.515 16.526 15.354 16.526 11.378 0 14.542-6.32 14.542-15.349v-7.231h-9.395v8.038c0 3.796-1.263 5.964-4.966 5.964-3.705 0-5.24-2.62-5.24-6.32v-32.874c0-3.708 1.535-6.327 5.24-6.327 3.703 0 4.966 2.352 4.966 5.964v11.287h9.395v-10.569c0-8.755-3.615-15.26-14.542-15.26-10.839 0-15.354 7.045-15.354 16.526" transform="translate(217.1273 461.633)"/><path d="m0 0v32.874c0 3.7-1.625 6.321-5.329 6.321-3.611 0-5.239-2.621-5.239-6.321v-32.874c0-3.707 1.628-6.327 5.239-6.327 3.704 0 5.329 2.62 5.329 6.327m-20.863 1.621v29.625c0 9.57 4.696 16.526 15.534 16.526 10.928 0 15.624-6.956 15.624-16.526v-29.625c0-9.481-4.696-16.526-15.624-16.526-10.838 0-15.534 7.045-15.534 16.526" transform="translate(273.462 460.0117)"/><path d="m0 0v-38.47h-8.67v61.228h10.117l11.109-35.132v35.132h8.577v-61.228h-9.029z" transform="translate(298.2764 484.3013)"/><path d="m0 0v32.874c0 3.7-1.625 6.321-5.329 6.321-3.612 0-5.239-2.621-5.239-6.321v-32.874c0-3.707 1.627-6.327 5.239-6.327 3.704 0 5.329 2.62 5.329 6.327m3.071 51.384-16.166-2.073v5.78l16.166 3.428zm-23.934-49.763v29.625c0 9.57 4.696 16.526 15.534 16.526 10.928 0 15.624-6.956 15.624-16.526v-29.625c0-9.481-4.696-16.526-15.624-16.526-10.838 0-15.534 7.045-15.534 16.526" transform="translate(346.1191 460.0117)"/><path d="m0 0h-.273l-6.954-39.736h-4.785l-7.678 39.736h-.181v-39.736h-8.489v61.228h12.012l6.683-34.496h.091l5.959 34.496h13.006v-61.228h-9.391z" transform="translate(390.6235 485.5671)"/><path d="m405.859 507.059h10.295v-61.227h-10.295z"/><path d="m0 0v29.625c0 9.57 4.515 16.526 15.353 16.526 11.379 0 14.542-6.32 14.542-15.349v-7.231h-9.394v8.038c0 3.796-1.263 5.964-4.966 5.964-3.705 0-5.24-2.62-5.24-6.32v-32.874c0-3.708 1.535-6.327 5.24-6.327 3.703 0 4.966 2.352 4.966 5.964v11.287h9.394v-10.569c0-8.755-3.614-15.26-14.542-15.26-10.838 0-15.353 7.045-15.353 16.526" transform="translate(422.1048 461.633)"/><path d="m0 0v32.874c0 3.7-1.625 6.321-5.329 6.321-3.612 0-5.239-2.621-5.239-6.321v-32.874c0-3.707 1.627-6.327 5.239-6.327 3.704 0 5.329 2.62 5.329 6.327m-20.863 1.621v29.625c0 9.57 4.696 16.526 15.534 16.526 10.927 0 15.623-6.956 15.623-16.526v-29.625c0-9.481-4.696-16.526-15.623-16.526-10.838 0-15.534 7.045-15.534 16.526" transform="translate(478.4395 460.0117)"/></g></g></svg>